<svg xmlns="http://www.w3.org/2000/svg" viewBox="0 0 32 32">
  <circle data-mono="drop" cx="16" cy="16" r="14" fill="#FFD15C"/>
  <path fill="#122232" d="m13.6 11 1.7-4.5c.2-.5.9-.4 1 .1l1 4.6z"/>
  <path fill="#122232" d="M5.7 17.2c0-3.6 4.1-6.4 8.9-6.4 3 0 5.7 1 7.4 2.7l3.8-2.6c.8-.6 1.8.2 1.4 1.1l-1.8 4.4 1.8 4.5c.4.9-.6 1.7-1.4 1.1l-3.8-2.6c-1.7 1.7-4.4 2.7-7.4 2.7-4.8 0-8.9-1.4-8.9-4.9z"/>
  <ellipse data-mono="drop" cx="9.8" cy="15.3" rx="1.9" ry="1.15" fill="#fff" transform="rotate(-22 9.8 15.3)"/>
  <path data-mono="drop" fill="#fff" d="M6.4 19.4c2.6 2 6.5 2.6 10 1.6-2.5 1.3-6.4 1.4-9.1.2z" opacity=".75"/>
</svg>
